<svg width="35" height="35" viewBox="0 0 35 35" fill="none" xmlns="http://www.w3.org/2000/svg">
<path d="M4.375 8.75033H7.29167M7.29167 8.75033H30.625M7.29167 8.75033V29.167C7.29167 29.9405 7.59896 30.6824 8.14594 31.2294C8.69292 31.7764 9.43479 32.0837 10.2083 32.0837H24.7917C25.5652 32.0837 26.3071 31.7764 26.8541 31.2294C27.401 30.6824 27.7083 29.9405 27.7083 29.167V8.75033M11.6667 8.75033V5.83366C11.6667 5.06011 11.974 4.31824 12.5209 3.77126C13.0679 3.22428 13.8098 2.91699 14.5833 2.91699H20.4167C21.1902 2.91699 21.9321 3.22428 22.4791 3.77126C23.026 4.31824 23.3333 5.06011 23.3333 5.83366V8.75033M14.5833 16.042V24.792M20.4167 16.042V24.792" stroke="#E5A73D" stroke-width="2.5" stroke-linecap="round" stroke-linejoin="round"/>
</svg>
