<svg width="80" height="80" viewBox="0 0 80 80" fill="none" xmlns="http://www.w3.org/2000/svg">
<rect x="2.5" y="2.5" width="75" height="75" rx="37.5" stroke="black" stroke-width="5"/>
<path d="M66.6663 70V63.3333C66.6663 59.7971 65.2616 56.4057 62.7611 53.9052C60.2606 51.4048 56.8692 50 53.333 50H26.6663C23.1301 50 19.7387 51.4048 17.2383 53.9052C14.7378 56.4057 13.333 59.7971 13.333 63.3333V70M53.333 23.3333C53.333 30.6971 47.3635 36.6667 39.9997 36.6667C32.6359 36.6667 26.6663 30.6971 26.6663 23.3333C26.6663 15.9695 32.6359 10 39.9997 10C47.3635 10 53.333 15.9695 53.333 23.3333Z" stroke="#1E1E1E" stroke-width="4" stroke-linecap="round" stroke-linejoin="round"/>
</svg>
